#!OML:ASF F:\VICON\USERDATA\Patient Classification 1\PLAYGROUND\JustinFriday\JustinFriday.ASF
:FULLY-SPECIFIED
:DEGREES
1766
root 7.51133 17.6312 50.595 178.425 63.9531 -179.678
lowerback 12.0796 1.97804 -3.32993
upperback 3.56236 2.51639 2.4953
thorax -3.28158 1.34193 4.11222
lowerneck -3.90119 7.60276 -5.92141
upperneck -16.0294 12.7946 9.54255
head -5.16246 6.58439 3.4046
rclavicle -3.49861e-014 3.18055e-015
rhumerus -23.0003 1.3156 -77.3854
rradius 42.1973
rwrist -10.3995
rhand -13.486 -17.8974
rfingers 7.12502
rthumb 12.6246 -47.4959
lclavicle -3.49861e-014 3.18055e-015
lhumerus 10.2984 22.1313 52.8722
lradius 57.9417
lwrist -21.0101
lhand -15.0895 -9.98355
lfingers 7.12502
lthumb 11.0784 19.7041
rfemur -27.7098 11.9318 10.5372
rtibia 28.4635
rfoot -8.21721 12.2529
rtoes -4.51722
lfemur 8.5728 -17.6156 -23.5611
ltibia 21.7215
lfoot 15.7902 -36.9053
ltoes 44.2078
1767
root 7.6397 17.6339 50.6256 178.51 63.0667 -179.684
lowerback 12.0776 1.94829 -3.36382
upperback 3.51161 2.47279 2.50847
thorax -3.33129 1.32188 4.15139
lowerneck -3.36972 7.33766 -5.87203
upperneck -16.822 12.4881 9.29877
head -5.45341 6.425 3.30155
rclavicle 3.27995e-014 4.05521e-014
rhumerus -22.8221 0.964295 -77.373
rradius 42.4798
rwrist -11.055
rhand -12.7836 -17.0539
rfingers 7.12502
rthumb 13.3018 -46.6094
lclavicle 3.27995e-014 4.05521e-014
lhumerus 10.5845 21.657 52.4212
lradius 57.2477
lwrist -18.7867
lhand -12.4718 -8.60288
lfingers 7.12502
lthumb 13.6023 20.9327
rfemur -27.721 11.932 10.8487
rtibia 29.0852
rfoot -6.95158 12.0445
rtoes -3.37561
lfemur 8.96701 -18.3807 -23.2479
ltibia 21.3941
lfoot 17.763 -36.1127
ltoes 44.9567
1768
root 7.76323 17.6484 50.6515 178.611 62.1321 -179.619
lowerback 12.2382 1.68453 -2.93774
upperback 3.47814 2.16439 2.32325
thorax -3.40283 1.16904 3.75769
lowerneck -3.84359 7.35977 -6.4083
upperneck -17.0398 12.7744 10.1043
head -5.54665 6.59463 3.63901
rclavicle 2.36554e-014 -3.02153e-014
rhumerus -22.4897 1.14599 -77.9464
rradius 42.6709
rwrist -10.8437
rhand -13.1831 -16.8483
rfingers 7.12502
rthumb 12.9167 -46.4285
lclavicle 2.36554e-014 -3.02153e-014
lhumerus 10.6419 21.4488 51.394
lradius 56.4976
lwrist -16.6724
lhand -9.79255 -7.61078
lfingers 7.12502
lthumb 16.1834 21.7337
rfemur -27.5106 11.9375 11.1151
rtibia 29.4818
rfoot -5.78759 11.4176
rtoes -3.17618
lfemur 9.16327 -19.1809 -22.9376
ltibia 21.5466
lfoot 19.0576 -35.4053
ltoes 45.5951
1769
root 7.89481 17.6539 50.6688 178.93 61.5352 -179.301
lowerback 12.0529 1.66097 -2.87505
upperback 3.61068 2.16758 2.60918
thorax -3.17166 1.16967 4.02824
lowerneck -4.40213 7.29465 -7.20161
upperneck -17.2135 12.8253 10.3593
head -5.5757 6.68699 3.8668
rclavicle 2.08724e-015 1.03368e-014
rhumerus -22.0616 1.80591 -77.812
rradius 43.0046
rwrist -10.9788
rhand -13.9887 -17.1796
rfingers 7.12502
rthumb 12.14 -46.8074
lclavicle 2.08724e-015 1.03368e-014
lhumerus 11.0277 21.7768 51.5055
lradius 55.4863
lwrist -15.4931
lhand -6.91979 -6.83094
lfingers 7.12502
lthumb 18.948 22.2662
rfemur -27.2366 12.018 11.5203
rtibia 29.7581
rfoot -5.0113 10.8222
rtoes -1.66418
lfemur 9.33456 -19.7805 -22.5427
ltibia 21.8925
lfoot 19.9806 -34.7198
ltoes 46.2023
1770
root 8.02019 17.6548 50.6974 180.022 60.7337 -178.175
lowerback 12.0784 1.48761 -2.20008
upperback 3.55503 2.0276 2.7296
thorax -3.21473 1.10166 3.79104
lowerneck -4.43718 7.24698 -7.13136
upperneck -17.5372 12.7729 10.0518
head -5.64375 6.67852 3.75997
rclavicle -2.79292e-014 6.20208e-014
rhumerus -21.8896 2.42364 -78.184
rradius 43.4053
rwrist -11.1547
rhand -15.3034 -18.3979
rfingers 7.12502
rthumb 10.8721 -48.0964
lclavicle -2.79292e-014 6.20208e-014
lhumerus 11.2491 21.8457 51.148
lradius 54.5214
lwrist -14.9002
lhand -3.99018 -5.86565
lfingers 7.12502
lthumb 21.7634 22.9308
rfemur -26.9719 12.0173 12.3367
rtibia 29.907
rfoot -4.69574 9.84579
rtoes -0.720135
lfemur 9.14497 -20.3341 -21.5333
ltibia 22.5065
lfoot 20.9293 -34.1729
ltoes 46.2282
1771
root 8.1505 17.6725 50.709 179.998 60.1479 -177.992
lowerback 12.1312 1.53749 -2.2541
upperback 3.64195 2.11117 3.02285
thorax -3.17187 1.14736 4.1178
lowerneck -3.94861 7.09145 -7.2036
upperneck -18.2656 12.5178 9.40893
head -5.89773 6.571 3.55217
rclavicle -3.38928e-014 -3.97569e-015
rhumerus -21.682 2.99219 -77.9286
rradius 43.7377
rwrist -11.6381
rhand -14.7158 -18.0882
rfingers 7.12502
rthumb 11.4389 -47.7562
lclavicle -3.38928e-014 -3.97569e-015
lhumerus 11.2146 21.5864 51.2378
lradius 53.5901
lwrist -14.5206
lhand -1.54954 -4.80669
lfingers 7.12502
lthumb 24.1054 23.699
rfemur -26.3181 11.512 12.8607
rtibia 29.9773
rfoot -4.65763 9.49899
rtoes -1.48088
lfemur 9.30144 -20.855 -21.3155
ltibia 23.3583
lfoot 20.9187 -33.5778
ltoes 45.3971
1772
root 8.27503 17.7028 50.7265 180.839 59.426 -176.825
lowerback 12.257 1.53688 -1.60692
upperback 3.68945 2.21114 3.2397
thorax -3.18641 1.20168 3.96035
lowerneck -3.59577 6.94302 -6.9769
upperneck -18.8208 12.3134 9.0034
head -6.0769 6.47246 3.37745
rclavicle -1.1947e-013 -2.70347e-014
rhumerus -21.5444 3.10258 -77.943
rradius 43.9746
rwrist -11.8741
rhand -14.6128 -18.0545
rfingers 7.12502
rthumb 11.5382 -47.7169
lclavicle -1.1947e-013 -2.70347e-014
lhumerus 11.7339 21.2382 51.3521
lradius 52.3369
lwrist -14.5759
lhand 0.667238 -3.95666
lfingers 7.12502
lthumb 26.2293 24.2507
rfemur -25.5769 11.0558 13.9223
rtibia 29.9679
rfoot -3.55989 9.37927
rtoes -4.8874
lfemur 9.28103 -21.3207 -20.4443
ltibia 24.38
lfoot 20.9985 -33.0807
ltoes 44.7723
